<?xml version="1.0" encoding="UTF-8" standalone="no"?>
<!-- Created with Inkscape (http://www.inkscape.org/) -->
<svg id="svg2" xmlns:inkscape="http://www.inkscape.org/namespaces/inkscape" xmlns:rdf="http://www.w3.org/1999/02/22-rdf-syntax-ns#" xmlns="http://www.w3.org/2000/svg" sodipodi:docname="logo_square-negative.svg" xml:space="preserve" height="180.71" viewBox="0 0 212.59875 180.70876" width="212.6" version="1.1" xmlns:cc="http://creativecommons.org/ns#" xmlns:dc="http://purl.org/dc/elements/1.1/" inkscape:version="0.91 r13725" xmlns:sodipodi="http://sodipodi.sourceforge.net/DTD/sodipodi-0.dtd"><sodipodi:namedview id="namedview4" bordercolor="#666666" inkscape:pageshadow="2" guidetolerance="10" pagecolor="#ffffff" gridtolerance="10" inkscape:window-maximized="1" inkscape:zoom="1.3059688" objecttolerance="10" borderopacity="1" inkscape:current-layer="g12" inkscape:cx="105.53366" inkscape:cy="90.354378" inkscape:window-y="27" inkscape:window-x="0" inkscape:window-width="1366" showgrid="false" inkscape:pageopacity="0" inkscape:window-height="704"/><metadata id="metadata8"><rdf:RDF><cc:Work rdf:about=""><dc:format>image/svg+xml</dc:format><dc:type rdf:resource="http://purl.org/dc/dcmitype/StillImage"/><dc:title/></cc:Work></rdf:RDF></metadata><g id="g10" inkscape:label="logo_square-.negative" transform="matrix(1.25 0 0 -1.25 0 180.71)" inkscape:groupmode="layer"><g id="g12"><g id="g20" transform="translate(169.21 107.43)"><path id="path22" d="m0 0c-0.189-15.156-10.18-25.241-24.549-25.062" inkscape:connector-curvature="0" stroke="#231f20" stroke-miterlimit="10" stroke-width=".2" fill="none"/></g><g id="g24" transform="translate(30.254 18.929)"><path id="path26" d="m0 0c0-11.903 6.144-18.258 18.679-18.258" inkscape:connector-curvature="0" stroke="#231f20" stroke-miterlimit="10" stroke-width=".2" fill="none"/></g><g id="g28" transform="translate(48.62 .625)"><path id="path30" d="m0 0c14.916 0.55 24.815 9.474 25.126 23.151" inkscape:connector-curvature="0" stroke="#231f20" stroke-miterlimit="10" stroke-width=".2" fill="none"/></g><g id="g32" transform="translate(27.103 113.64)"><path id="path34" d="m0 0c-0.969 0.323-1.777 0.43-2.8 0.43-4.199 0-6.623-2.584-6.623-7.106 0-4.416 2.316-6.839 6.57-6.839 0.914 0 1.669 0.054 2.853 0.215v13.3zm0 19.319h8.292v-38.38c-4.254-0.808-7.377-1.131-10.769-1.131-10.122 0-15.399 4.576-15.399 13.353 0 8.453 5.6 13.945 14.269 13.945 1.346 0 2.369-0.108 3.607-0.43v12.643z" inkscape:connector-curvature="0" fill="#bb5e91"/></g><path id="path36" d="m40.294 132.91h8.292v-8.508h-8.292v8.508zm8.292-12.761v-19.222c0-6.622-0.485-9.799-1.939-12.545-1.346-2.639-3.123-4.307-6.784-6.138l-7.7 3.661c3.662 1.723 5.439 3.23 6.569 5.546 1.185 2.369 1.562 5.116 1.562 12.33v16.368h8.292z" inkscape:connector-curvature="0" fill="#bb5e91"/><g id="g38" transform="translate(66.57 105.08)"><path id="path40" d="m0 0c-5.492-0.539-7.269-1.4-7.269-3.554 0-1.615 1.023-2.369 3.285-2.369 1.238 0 2.368 0.108 3.984 0.377v5.546zm-12.976 13.192c3.662 1.723 7.161 2.476 10.984 2.476 4.254 0 7.053-1.13 8.292-3.338 0.699-1.238 0.915-2.853 0.915-6.3v-16.852c-3.716-0.539-8.4-0.916-11.846-0.916-6.945 0-10.068 2.424-10.068 7.807 0 5.816 4.146 8.508 14.322 9.37v1.831c0 1.507-0.754 2.045-2.854 2.045-3.069 0-6.515-0.861-9.746-2.531v6.408h0.001z" inkscape:connector-curvature="0" fill="#bb5e91"/></g><g id="g42" transform="translate(77.824 118.86)"><path id="path44" d="m0 0c4.899 1.293 8.938 1.885 13.03 1.885 4.253 0 7.322-0.969 9.154-2.854 1.723-1.776 2.261-3.714 2.261-7.861v-16.261h-8.292v15.938c0 3.177-1.077 4.362-4.038 4.362-1.13 0-2.153-0.108-3.823-0.593v-19.706h-8.292v25.09z" inkscape:connector-curvature="0" fill="#bb5e91"/></g><g id="g46" transform="translate(121.97 114.01)"><path id="path48" d="m0 0h-0.269-0.592c-1.615 0.054-3.5-0.377-4.792-1.184-1.992-1.131-3.016-3.177-3.016-6.085 0-4.146 2.047-6.515 5.708-6.515 1.13 0 2.046 0.216 3.123 0.539v0.592 2.261c0 0.969-0.054 2.047-0.054 3.177l-0.053 3.823-0.055 2.746v0.646zm-16.476-24.768c2.908-1.507 5.815-2.207 8.884-2.207 5.438 0 7.753 2.207 7.753 7.484v0.162c-1.615-0.808-3.231-1.131-5.384-1.131-7.269 0-11.9 4.792-11.9 12.383 0 9.423 6.839 14.753 18.953 14.753 3.554 0 6.838-0.376 10.823-1.183l-2.839-5.982c-2.208 0.431-0.177 0.058-1.846 0.219v-0.861l0.108-3.499 0.053-4.523c0.054-1.13 0.054-2.262 0.108-3.392v-2.262c0-7.107-0.592-10.446-2.369-13.191-2.584-4.039-7.053-6.031-13.407-6.031-3.23 0-6.029 0.485-8.937 1.616v7.645z" inkscape:connector-curvature="0" fill="#bb5e91"/></g><g id="g50" transform="translate(147.33 99.746)"><path id="path52" d="m0 0c3.177 0 5.062 2.638 5.062 7.215 0 4.523-1.831 7.215-5.007 7.215-3.285 0-5.17-2.639-5.17-7.215 0-4.577 1.885-7.215 5.115-7.215m0.162 21.106c8.292 0 13.353-5.223 13.353-13.676 0-8.668-5.276-14.106-13.676-14.106-8.292 0-13.407 5.222-13.407 13.621 0 8.724 5.277 14.161 13.73 14.161" inkscape:connector-curvature="0" fill="#bb5e91"/></g><g id="g54" transform="translate(44.834 44.099)"><path id="path56" d="m0 0c0-0.385 0.009-0.856 0.029-1.413 0.019-0.557 0.095-1.095 0.23-1.614s0.346-0.962 0.635-1.327c0.288-0.365 0.701-0.548 1.24-0.548 1.076 0 2.076 0.491 2.998 1.471 0.923 0.98 1.778 2.229 2.566 3.748 0.788 1.518 1.5 3.201 2.134 5.046s1.172 3.652 1.615 5.42c0.441 1.768 0.778 3.374 1.009 4.815 0.23 1.442 0.346 2.509 0.346 3.201-2.346 0.845-4.345 0.826-5.998-0.058-1.653-0.885-2.989-2.278-4.007-4.181-1.019-1.902-1.759-4.151-2.22-6.746-0.462-2.595-0.654-5.2-0.577-7.814m3.518-33.734c-1.038-0.115-2.076-0.038-3.114 0.231s-1.961 0.663-2.768 1.182c-0.808 0.519-1.442 1.153-1.903 1.903-0.462 0.749-0.616 1.547-0.462 2.393 0.769 0 1.451-0.154 2.048-0.462 0.595-0.307 1.191-0.653 1.787-1.038 0.596-0.384 1.22-0.73 1.874-1.038 0.654-0.307 1.442-0.461 2.365-0.461 2.229 0 4.103 0.481 5.622 1.442 1.518 0.961 2.739 2.23 3.662 3.806 0.922 1.576 1.585 3.354 1.989 5.334s0.606 4.007 0.606 6.083c0 0.539-0.029 1.384-0.087 2.538-0.058 1.153-0.125 2.45-0.202 3.892s-0.164 2.96-0.259 4.556c-0.097 1.595-0.193 3.114-0.289 4.555-0.096 1.442-0.192 2.739-0.288 3.893-0.096 1.153-0.183 1.998-0.259 2.537-0.308-0.77-0.692-1.711-1.154-2.826-0.461-1.115-0.99-2.287-1.585-3.517-0.597-1.231-1.269-2.451-2.019-3.662-0.749-1.211-1.586-2.298-2.508-3.258-0.923-0.962-1.932-1.74-3.028-2.336-1.095-0.595-2.258-0.893-3.488-0.893-0.654 0-1.163 0.327-1.528 0.98-0.366 0.653-0.645 1.403-0.837 2.249-0.192 0.845-0.317 1.681-0.374 2.508-0.058 0.827-0.087 1.413-0.087 1.759-0.193 2.46-0.193 4.892 0 7.295 0.192 2.402 0.586 4.651 1.182 6.747 0.596 2.094 1.384 3.969 2.364 5.622 0.981 1.652 2.182 2.95 3.605 3.892 1.422 0.942 3.046 1.48 4.872 1.615 1.826 0.134 3.873-0.28 6.142-1.24 0.614 0.077 1.028-0.269 1.239-1.038 0.211-0.77 0.308-1.711 0.289-2.825-0.02-1.116-0.087-2.288-0.202-3.518-0.115-1.231-0.193-2.269-0.231-3.114 0-1.999 0.077-3.999 0.231-5.997 0.153-1.999 0.336-3.989 0.548-5.968 0.211-1.981 0.394-3.96 0.548-5.94 0.153-1.98 0.23-3.969 0.23-5.968 0-2.307-0.23-4.738-0.692-7.295-0.461-2.556-1.259-4.921-2.393-7.093-1.134-2.171-2.633-3.969-4.498-5.392-1.865-1.421-4.18-2.133-6.948-2.133" inkscape:connector-curvature="0" fill="#bb5e91"/></g><g id="g58" transform="translate(70.207 36.141)"><path id="path60" d="m0 0c-0.193 0-0.442 0.039-0.75 0.115-0.308 0.078-0.615 0.193-0.922 0.346-0.308 0.154-0.568 0.336-0.779 0.548-0.211 0.211-0.317 0.452-0.317 0.721l-0.058 27.737c0 0.268 0.106 0.509 0.318 0.721 0.211 0.21 0.47 0.394 0.778 0.548 0.307 0.153 0.615 0.268 0.923 0.346 0.307 0.076 0.557 0.115 0.749 0.115l0.058-31.197zm-2.422 37.136c-0.269 0-0.577 0.096-0.923 0.289-0.346 0.192-0.644 0.432-0.893 0.721-0.251 0.288-0.424 0.595-0.519 0.922-0.096 0.326-0.029 0.606 0.201 0.836 0.154 0.462 0.462 0.884 0.923 1.269 0.461 0.384 0.942 0.643 1.442 0.778 0.499 0.135 0.932 0.116 1.297-0.057s0.548-0.606 0.548-1.298c0-0.346-0.029-0.721-0.086-1.124-0.058-0.404-0.173-0.779-0.346-1.125s-0.395-0.634-0.664-0.865c-0.269-0.23-0.596-0.346-0.98-0.346" inkscape:connector-curvature="0" fill="#bb5e91"/></g><g id="g62" transform="translate(74.301 59.784)"><path id="path64" d="m0 0c-0.115 0.499-0.269 1.133-0.461 1.903-0.193 0.769-0.366 1.557-0.519 2.364-0.154 0.808-0.231 1.576-0.231 2.307 0 0.729 0.115 1.316 0.346 1.759 0.231 0.441 0.634 0.692 1.211 0.749 0.577 0.058 1.384-0.202 2.422-0.778 0.077-0.385 0.182-1.029 0.317-1.932 0.134-0.904 0.279-1.865 0.433-2.883 0.153-1.019 0.288-1.981 0.403-2.884 0.116-0.903 0.173-1.548 0.173-1.931 0.692 1.537 1.576 2.998 2.653 4.382 1.076 1.384 2.325 2.595 3.748 3.633 1.422 1.038 2.979 1.864 4.671 2.48 1.691 0.614 3.498 0.922 5.42 0.922l-0.576-3.287c-2.461-0.423-4.758-1.461-6.891-3.113-2.134-1.654-3.912-3.787-5.334-6.401-1.423-2.615-2.374-5.671-2.855-9.169-0.481-3.499-0.298-7.305 0.548-11.418l-3.633-0.749c-0.038 0.038-0.096 0.509-0.173 1.412s-0.173 2.067-0.288 3.489-0.231 3.018-0.346 4.786-0.231 3.537-0.346 5.306c-0.115 1.767-0.241 3.45-0.375 5.045-0.135 1.595-0.24 2.931-0.317 4.008" inkscape:connector-curvature="0" fill="#bb5e91"/></g><g id="g66" transform="translate(97.483 86.252)"><path id="path68" d="m0 0 3.229 0.461c0.154-2.038 0.298-4.44 0.433-7.208 0.134-2.768 0.249-5.69 0.346-8.765 0.095-3.076 0.182-6.199 0.259-9.371 0.077-3.171 0.144-6.18 0.202-9.024 0.058-2.845 0.125-5.411 0.202-7.698 0.077-2.288 0.173-4.085 0.288-5.392 0-0.539-0.096-1.048-0.288-1.528-0.193-0.481-0.423-0.827-0.692-1.038s-0.577-0.24-0.923-0.087c-0.346 0.154-0.654 0.577-0.922 1.269l-2.134 48.381z" inkscape:connector-curvature="0" fill="#bb5e91"/></g><g id="g70" transform="translate(105.15 47.443)"><path id="path72" d="m0 0c0.307 0.653 0.672 1.067 1.096 1.24 0.422 0.173 0.98 0.221 1.672 0.144 1.384-1.269 2.797-2.461 4.238-3.575 1.442-1.116 2.95-2.076 4.527-2.884 1.576-0.807 3.229-1.451 4.959-1.931 1.73-0.481 3.575-0.721 5.536-0.721h1.326c0.5 0 0.952 0.067 1.356 0.202 0.403 0.134 0.749 0.355 1.037 0.663 0.289 0.307 0.433 0.749 0.433 1.326-0.154 1.153-0.759 2.163-1.816 3.028-1.058 0.865-2.336 1.691-3.835 2.479s-3.095 1.595-4.786 2.422c-1.692 0.826-3.23 1.768-4.614 2.826-1.384 1.057-2.499 2.268-3.344 3.633-0.846 1.364-1.173 3.007-0.981 4.93 0 1.076 0.346 2.037 1.038 2.883 0.692 0.845 1.538 1.566 2.538 2.163 0.999 0.595 2.047 1.057 3.142 1.384 1.096 0.326 2.067 0.49 2.913 0.49 1.652 0 3.334-0.241 5.045-0.721 1.711-0.481 3.239-1.182 4.585-2.105l-1.557-2.191c-0.692 0.577-1.548 1.009-2.566 1.297-1.019 0.289-2.067 0.442-3.143 0.462-1.077 0.019-2.134-0.068-3.172-0.26-1.038-0.193-1.951-0.49-2.739-0.894-0.788-0.403-1.384-0.885-1.787-1.441-0.404-0.558-0.51-1.163-0.318-1.817 0-1.807 0.481-3.278 1.442-4.411 0.961-1.134 2.172-2.115 3.633-2.941 1.461-0.827 3.037-1.567 4.728-2.22 1.692-0.654 3.268-1.394 4.729-2.22 1.461-0.827 2.672-1.807 3.633-2.941s1.442-2.586 1.442-4.354c0-1.115-0.183-1.999-0.548-2.652-0.366-0.654-0.846-1.154-1.442-1.5s-1.307-0.576-2.134-0.692c-0.827-0.115-1.701-0.173-2.623-0.173-2.076 0-4.23 0.269-6.459 0.808-2.23 0.538-4.402 1.287-6.516 2.249-2.115 0.96-4.094 2.123-5.939 3.488-1.846 1.365-3.422 2.874-4.729 4.527" inkscape:connector-curvature="0" fill="#bb5e91"/></g><g id="g74" transform="translate(144.78 82.215)"><path id="path76" d="m0 0c-0.191-15.649 0.159-28.44-0.122-37.956" inkscape:connector-curvature="0" stroke="#231f20" stroke-miterlimit="10" stroke-width=".2" fill="none"/></g><g id="g78" transform="translate(169.17 107.43)"><path id="path80" d="m0 0c0 14.246-8.803 23.844-21.868 23.844" inkscape:connector-curvature="0" stroke="#231f20" stroke-miterlimit="10" stroke-width=".2" fill="none"/></g><g id="g82" transform="translate(147.3 131.27)"><path id="path84" d="m0 0h-89.441" inkscape:connector-curvature="0" stroke="#231f20" stroke-miterlimit="10" stroke-width=".2" fill="none"/></g><g id="g86" transform="translate(17.464 127.35)"><path id="path88" d="m0 0c-0.615 9.128 9.139 14.085 9.139 14.085 12.014 4.53 30.653 1.867 31.261-10.16" inkscape:connector-curvature="0" stroke="#231f20" stroke-miterlimit="10" stroke-width=".2" fill="none"/></g><g id="g90" transform="translate(17.464 127.35)"><path id="path92" d="m0 0c-9.505-2.305-16.565-10.902-16.565-21.156 0-12.019 9.701-21.763 21.668-21.763" inkscape:connector-curvature="0" stroke="#231f20" stroke-miterlimit="10" stroke-width=".2" fill="none"/></g><g id="g94" transform="translate(22.567 84.429)"><path id="path96" d="m0 0c0-7.292 5.909-12.205 14.68-12.205" inkscape:connector-curvature="0" stroke="#231f20" stroke-miterlimit="10" stroke-width=".2" fill="none"/></g><g id="g98" transform="translate(32.545 37.26)"><path id="path100" d="m0 0c-0.135 10.892-0.477 18.093-0.141 23.601 0.197 3.242 0.844 6.358 1.327 8.062 0.171 0.606 0.372 0.776 0.587 1.208 0.646 1.297 1.49 2.184 2.604 2.113" inkscape:connector-curvature="0" stroke="#231f20" stroke-miterlimit="10" stroke-width=".2" fill="none"/></g><g id="g102" transform="translate(30.254 18.929)"><path id="path104" d="m0 0c0.314 4.715 2.291 7.317 6.151 9.841l0.528 0.044c-2.884 2.049-4.383 5.383-4.388 8.446" inkscape:connector-curvature="0" stroke="#231f20" stroke-miterlimit="10" stroke-width=".2" fill="none"/></g><g id="g106" transform="translate(87.815 31.881)"><path id="path108" d="m0 0c-0.097-5.005-5.507-8.27-14.069-8.105" inkscape:connector-curvature="0" stroke="#231f20" stroke-miterlimit="10" stroke-width=".2" fill="none"/></g><g id="g110" transform="translate(87.815 31.881)"><path id="path112" d="m0 0c-0.267-2.652 9.667-10.167 21.285-4.915l1.025 0.9c3.614-2.769 8.135-4.415 13.04-4.415 11.851 0 21.494 8.957 21.494 20.808" inkscape:connector-curvature="0" stroke="#231f20" stroke-miterlimit="10" stroke-width=".2" fill="none"/></g></g></g></svg>
