<?xml version="1.0" encoding="UTF-8" standalone="no"?>
<!-- Created with Inkscape (http://www.inkscape.org/) -->
<svg id="svg2" xmlns:rdf="http://www.w3.org/1999/02/22-rdf-syntax-ns#" xmlns="http://www.w3.org/2000/svg" xml:space="preserve" height="88.781" viewBox="0 0 284.60751 88.780998" width="284.61" version="1.1" xmlns:cc="http://creativecommons.org/ns#" xmlns:dc="http://purl.org/dc/elements/1.1/"><metadata id="metadata8"><rdf:RDF><cc:Work rdf:about=""><dc:format>image/svg+xml</dc:format><dc:type rdf:resource="http://purl.org/dc/dcmitype/StillImage"/><dc:title/></cc:Work></rdf:RDF></metadata><defs id="defs6"><clipPath id="clipPath180" clipPathUnits="userSpaceOnUse"><path id="path182" d="m0 71.025h227.69v-71.025h-227.69v71.025z"/></clipPath></defs><g id="g10" transform="matrix(1.25,0,0,-1.25,0,88.781)"><g id="g20" transform="translate(151.15 31.626)"><path id="path22" d="m0 0c0-0.303 0.007-0.675 0.023-1.114 0.015-0.44 0.075-0.865 0.182-1.274 0.106-0.409 0.273-0.758 0.5-1.046 0.227-0.289 0.553-0.432 0.978-0.432 0.849 0 1.638 0.386 2.365 1.16 0.728 0.773 1.403 1.758 2.025 2.956 0.621 1.198 1.182 2.525 1.683 3.98 0.5 1.456 0.924 2.881 1.273 4.276 0.348 1.395 0.614 2.661 0.796 3.798s0.273 1.979 0.273 2.525c-1.85 0.666-3.427 0.652-4.731-0.046s-2.358-1.796-3.161-3.298c-0.804-1.501-1.387-3.275-1.751-5.322-0.364-2.046-0.516-4.101-0.455-6.163m2.775-26.61c-0.819-0.091-1.638-0.03-2.457 0.182-0.818 0.213-1.546 0.523-2.183 0.933-0.637 0.409-1.137 0.909-1.501 1.501-0.364 0.591-0.485 1.221-0.364 1.887 0.606 0 1.144-0.121 1.615-0.364 0.47-0.242 0.939-0.515 1.41-0.818 0.47-0.303 0.962-0.576 1.478-0.819s1.137-0.364 1.865-0.364c1.759 0 3.237 0.379 4.435 1.137s2.161 1.759 2.889 3.002c0.727 1.244 1.251 2.646 1.569 4.208s0.478 3.161 0.478 4.799c0 0.425-0.023 1.091-0.069 2.001-0.045 0.91-0.098 1.933-0.159 3.071-0.061 1.137-0.129 2.334-0.205 3.593-0.076 1.258-0.152 2.456-0.227 3.593-0.076 1.138-0.152 2.161-0.227 3.071-0.076 0.91-0.145 1.576-0.205 2.001-0.243-0.607-0.546-1.349-0.91-2.229-0.364-0.879-0.781-1.804-1.251-2.774-0.47-0.971-1-1.933-1.592-2.889-0.591-0.955-1.251-1.812-1.978-2.57-0.728-0.758-1.524-1.372-2.389-1.842-0.864-0.47-1.781-0.705-2.752-0.705-0.515 0-0.917 0.258-1.205 0.773-0.288 0.516-0.508 1.107-0.659 1.774-0.153 0.667-0.251 1.327-0.296 1.979-0.046 0.652-0.068 1.114-0.068 1.387-0.152 1.941-0.152 3.859 0 5.754 0.151 1.895 0.462 3.669 0.932 5.322s1.092 3.131 1.865 4.435 1.721 2.327 2.843 3.071c1.122 0.743 2.403 1.167 3.844 1.273 1.44 0.106 3.054-0.22 4.844-0.978 0.485 0.061 0.811-0.212 0.978-0.818 0.166-0.607 0.242-1.35 0.227-2.229-0.015-0.88-0.068-1.805-0.159-2.775-0.091-0.971-0.152-1.789-0.182-2.456 0-1.577 0.061-3.154 0.182-4.731s0.265-3.146 0.432-4.708 0.311-3.123 0.432-4.685c0.121-1.561 0.182-3.131 0.182-4.708 0-1.819-0.182-3.737-0.545-5.754-0.364-2.016-0.994-3.881-1.888-5.595-0.895-1.713-2.078-3.131-3.548-4.253-1.471-1.121-3.298-1.683-5.481-1.683" fill="#fff"/></g><g id="g24" transform="translate(153.93 9.7816)"><path id="path26" d="m0 0c-1.675-0.031-1.74 0.87-1.74-0.262-2.01-1.531-4.021-3.063-6.031-4.595 1.903-0.429 3.499-1.68 5.356-2.274 2.105-0.674 4.631-0.113 6.689 0.415 3.826 0.981 6.848 4.722 8.167 8.258 2.971 7.965 1.437 18.067 0.466 26.307-0.642 5.447-7.298 6.362-9.36 1.267-0.947-2.341-1.996-4.573-3.272-6.754-1.572-1.067-1.663-2.303-0.274-3.708-0.36 1.218-0.231 2.796-0.295 4.032-0.171 3.258 0.378 6.39 1.384 9.471 1.386 4.246 4.13 3.634 7.622 2.719-0.949 0.73-1.899 1.46-2.848 2.19 0.727-1.296-0.395-5.68-0.374-7.291 0.047-3.671 0.56-7.335 0.897-10.985 0.496-5.38 1.537-18.259-6.387-18.79-6.098-0.409-6.138-9.941 0-9.53 13.841 0.927 16.789 15.234 16.046 26.758-0.423 6.558-0.955 12.782-0.705 19.355 0.25 6.588-5.026 8.643-10.815 8.79-13.832 0.352-15.519-19.697-13.715-29.253 1.03-5.457 6.975-7.72 11.617-4.69 5.5 3.591 7.927 9.264 10.309 15.152-3.12 0.423-6.24 0.845-9.36 1.267 0.644-5.466 0.837-11.015 1.075-16.511 0.111-2.573-0.203-5.108-1.379-7.421-1.861-3.656-5.724-0.167-8.311 0.416-3.001 0.676-6.031-1.387-6.032-4.595 0-6.075 5.712-9.37 11.27-9.268 6.138 0.113 6.149 9.643 0 9.53" fill="#fff"/></g><g id="g28" transform="translate(146.39 31.626)"><path id="path30" d="m0 0c0.062-3.028 0.942-7.649 4.618-8.353 3.369-0.646 6.094 0.529 8.275 3.121 4.32 5.135 6.426 13.482 6.735 20.061 0.099 2.108-1.528 4.046-3.498 4.595-12.111 3.373-16.215-9.936-16.13-19.424 0.055-6.142 9.585-6.148 9.53 0-0.023 2.531 0.019 11.361 4.066 10.234-1.166 1.532-2.332 3.063-3.498 4.595-0.114-2.434-0.812-4.84-1.479-7.171-0.395-1.383-0.856-2.766-1.441-4.08-0.325-0.705-0.69-1.388-1.094-2.05-1.601-1.629-0.452-2.138 3.446-1.528-0.125 6.137-9.655 6.149-9.53 0" fill="#fff"/></g><g id="g32" transform="translate(171.17 25.349)"><path id="path34" d="m0 0c-0.152 0-0.349 0.031-0.591 0.091-0.243 0.061-0.486 0.152-0.728 0.273-0.243 0.121-0.448 0.265-0.614 0.432-0.167 0.166-0.25 0.356-0.25 0.569l-0.046 21.879c0 0.212 0.083 0.401 0.25 0.568s0.371 0.311 0.614 0.433c0.243 0.12 0.485 0.211 0.728 0.273 0.243 0.06 0.439 0.09 0.592 0.09l0.045-24.608zm-1.91 29.294c-0.213 0-0.455 0.075-0.728 0.227s-0.508 0.341-0.705 0.569c-0.198 0.227-0.334 0.469-0.41 0.727-0.075 0.258-0.022 0.478 0.16 0.66 0.12 0.364 0.363 0.697 0.727 1.001 0.364 0.303 0.743 0.507 1.137 0.614 0.394 0.106 0.735 0.091 1.024-0.046 0.288-0.136 0.432-0.477 0.432-1.023 0-0.273-0.023-0.569-0.068-0.887-0.046-0.319-0.137-0.614-0.273-0.887-0.137-0.273-0.311-0.5-0.523-0.682-0.213-0.182-0.471-0.273-0.773-0.273" fill="#fff"/></g><g id="g36" transform="translate(169.26 59.408)"><path id="path38" d="m0 0-0.165 0.014 1.267-0.17c-0.126 0.023-0.248 0.06-0.364 0.114 0.379-0.161 0.759-0.321 1.138-0.481-0.208 0.105-0.392 0.217-0.58 0.356l0.965-0.745c-0.173 0.152-0.319 0.305-0.461 0.486 0.248-0.322 0.497-0.643 0.745-0.965-0.082 0.114-0.15 0.236-0.205 0.364 0.16-0.379 0.32-0.759 0.481-1.138-0.055 0.12-0.089 0.245-0.101 0.377 0.057-0.423 0.114-0.845 0.17-1.267l0.016 0.172c-0.057-0.422-0.114-0.845-0.17-1.267 0.021 0.053 0.042 0.105 0.064 0.158-0.409-0.701-0.817-1.402-1.226-2.103 0.667 0.854 1.01 1.414 1.408 2.426-0.16-0.379-0.32-0.759-0.48-1.138 0.056 0.121 0.123 0.236 0.202 0.343-0.248-0.321-0.497-0.643-0.745-0.964 0.141 0.176 0.287 0.327 0.455 0.478-0.321-0.249-0.643-0.497-0.964-0.745 0.287 0.221 0.569 0.395 0.902 0.538-0.379-0.16-0.759-0.32-1.138-0.48 0.151 0.057 0.306 0.099 0.465 0.124-0.423-0.056-0.845-0.113-1.267-0.17 0.14 0.023 0.281 0.027 0.422 0.011-0.422 0.057-0.845 0.114-1.267 0.17 0.13-0.015 0.254-0.05 0.372-0.105-0.38 0.16-0.759 0.32-1.139 0.48 0.039-0.023 0.077-0.047 0.115-0.071-0.321 0.249-0.643 0.497-0.964 0.745 0.032-0.032 0.064-0.064 0.097-0.096-0.249 0.322-0.497 0.643-0.745 0.965 0.063-0.081 0.11-0.17 0.141-0.268-0.16 0.38-0.321 0.759-0.481 1.138 0.038-0.119 0.062-0.242 0.071-0.367-0.057 0.422-0.114 0.844-0.17 1.267 0.015-0.374-0.012-0.738-0.06-1.109 0.057 0.422 0.114 0.845 0.171 1.267-0.043-0.236-0.1-0.452-0.18-0.678 0.161 0.379 0.321 0.759 0.481 1.138-0.095-0.21-0.196-0.394-0.327-0.584 0.248 0.321 0.496 0.643 0.745 0.964-0.086-0.112-0.183-0.214-0.29-0.307 0.321 0.249 0.643 0.497 0.964 0.745-0.105-0.09-0.222-0.158-0.352-0.204l1.138 0.48c-0.067-0.017-0.135-0.034-0.202-0.051 0.422 0.057 0.844 0.113 1.267 0.17-0.073-0.006-0.146-0.011-0.219-0.017-2.589-0.202-4.765-2.015-4.765-4.765 0-2.444 2.172-4.967 4.765-4.765 1.589 0.124 2.972 0.551 4.143 1.669 0.887 0.846 1.439 1.851 1.842 2.993 0.294 0.834 0.362 1.744 0.413 2.623 0.075 1.267-0.311 2.222-0.787 3.349-0.567 1.343-2.06 2.074-3.318 2.546-1.057 0.396-2.574 0.237-3.613-0.098-1.238-0.399-2.212-1.053-3.176-1.918-0.905-0.811-1.35-1.852-1.782-2.949l1.226 2.103c-0.664-0.849-0.933-1.246-1.338-2.247-0.204-0.503-0.201-1.058-0.25-1.596-0.091-1.006 0.437-2.33 0.956-3.146 1.289-2.028 3.326-3.127 5.684-3.329 2.592-0.222 4.765 2.336 4.765 4.765 0 1.259-0.506 2.48-1.396 3.369-0.951 0.952-2.066 1.284-3.369 1.396" fill="#fff"/></g><g id="g40" transform="translate(172.43 29.944)"><path id="path42" d="m0 0c-2.338 0.36 1.318-4.798 1.314-2.749-0.002 0.861-0.004 1.722-0.005 2.583-0.006 2.625-0.011 5.25-0.017 7.875-0.005 2.626-0.011 5.251-0.016 7.876-0.002 0.742-0.003 1.485-0.005 2.227-0.005 2.66-3.524-2.733-1.316-2.393-2.011 1.531-4.022 3.063-6.032 4.595l0.045-24.609c0.012-6.145 9.542-6.146 9.53 0l-0.045 24.609c-0.006 3.367-3.019 5.058-6.032 4.594-7.739-1.19-5.67-11.385-5.659-16.899 0.012-5.511-2.014-15.711 5.705-16.899 6.009-0.924 8.592 8.258 2.533 9.19" fill="#fff"/></g><g id="g44" transform="translate(174.4 43.999)"><path id="path46" d="m0 0c-0.091 0.394-0.212 0.894-0.364 1.501-0.152 0.606-0.288 1.228-0.409 1.865-0.122 0.637-0.182 1.243-0.182 1.82 0 0.575 0.091 1.038 0.273 1.387 0.182 0.348 0.5 0.546 0.955 0.591 0.455 0.046 1.092-0.159 1.91-0.614 0.061-0.303 0.144-0.811 0.251-1.524 0.105-0.713 0.219-1.471 0.341-2.274 0.121-0.804 0.227-1.562 0.318-2.274 0.091-0.713 0.137-1.221 0.137-1.524 0.545 1.212 1.243 2.365 2.092 3.457s1.834 2.047 2.957 2.865c1.121 0.819 2.349 1.471 3.684 1.956 1.334 0.485 2.759 0.728 4.276 0.728l-0.455-2.593c-1.941-0.334-3.753-1.152-5.436-2.456s-3.086-2.987-4.207-5.049c-1.122-2.062-1.873-4.473-2.252-7.232-0.379-2.76-0.235-5.762 0.432-9.007l-2.865-0.591c-0.031 0.03-0.076 0.402-0.137 1.114-0.061 0.713-0.136 1.63-0.227 2.752s-0.182 2.381-0.273 3.776c-0.091 1.394-0.182 2.789-0.273 4.185-0.091 1.394-0.19 2.721-0.296 3.98-0.106 1.258-0.19 2.312-0.25 3.161" fill="#fff"/></g><g id="g48" transform="translate(178.99 45.266)"><path id="path50" d="m0 0c-0.379 1.319-0.607 2.665-0.682 4.039l-2.19-2.847c0.318 0.197 0.637 0.394 0.955 0.591l-3.672-0.48c0.258-0.045 0.515-0.089 0.773-0.134-0.73 0.949-1.46 1.898-2.19 2.848 0.369-2.086 0.757-4.214 0.876-6.33 0.247-4.409 6.622-6.92 8.879-2.405 1.848 3.696 4.572 6.411 8.895 6.646-1.532 2.011-3.063 4.022-4.595 6.032l-0.455-2.593c1.11 1.11 2.219 2.219 3.328 3.329-13.419-3.201-16.894-17.661-14.79-29.606 1.109 1.954 2.218 3.907 3.328 5.861-0.955-0.197-1.911-0.394-2.866-0.591 1.954-1.109 3.908-2.219 5.862-3.328-0.962 5.084-0.857 12.023-1.286 17.701-0.46 6.089-9.993 6.133-9.53 0 0.503-6.653 0.385-13.673 1.626-20.235 0.505-2.67 3.486-3.818 5.862-3.328 0.955 0.197 1.91 0.395 2.865 0.592 2.715 0.56 3.754 3.441 3.328 5.861-1.218 6.921 0.146 15.978 8.135 17.883 1.483 0.354 3.056 1.779 3.328 3.328l0.455 2.593c0.504 2.871-1.26 6.213-4.595 6.032-7.59-0.414-13.726-4.573-17.124-11.367 2.96-0.802 5.92-1.603 8.88-2.405-0.231 4.122-0.218 11.896-5.636 12.686-8.553 1.247-8.434-6.801-6.954-12.906 1.448-5.971 10.638-3.438 9.19 2.533" fill="#fff"/></g><g id="g52" transform="translate(192.68 64.878)"><path id="path54" d="m0 0 2.547 0.364c0.121-1.608 0.235-3.503 0.341-5.686s0.197-4.488 0.273-6.914 0.144-4.89 0.205-7.392c0.06-2.501 0.114-4.875 0.159-7.118 0.046-2.245 0.098-4.269 0.159-6.073s0.137-3.222 0.228-4.253c0-0.425-0.076-0.826-0.228-1.205-0.152-0.38-0.334-0.653-0.545-0.819-0.213-0.166-0.455-0.189-0.728-0.068s-0.516 0.455-0.728 1l-1.683 38.164z" fill="#fff"/></g><g id="g56" transform="translate(193.95 60.283)"><path id="path58" d="m0 0c0.849 0.121 1.698 0.243 2.547 0.364-2.01 1.531-4.021 3.063-6.031 4.595 0.427-6.033 0.609-12.078 0.771-18.123 0.095-3.543 0.165-7.086 0.242-10.63 0.037-1.713 1.136-6.941 0.228-8.302 1.372 0.786 2.743 1.573 4.115 2.36l-0.728-0.069c1.372-0.786 2.743-1.573 4.115-2.36 0.46-0.633-0.05-2.022-0.145 0.13-0.06 1.354-0.12 2.709-0.18 4.063l-0.594 13.485c-0.281 6.361-0.561 12.721-0.842 19.082-0.27 6.12-9.801 6.147-9.53 0 0.517-11.717 1.034-23.434 1.55-35.152 0.069-1.548-0.159-4.12 0.784-5.417 1.49-2.049 2.822-3.55 5.57-3.292 2.298 0.215 4.68 1.878 5.141 4.317 1.075 5.7 0.028 12.262-0.105 18.064-0.166 7.284-0.347 14.574-0.862 21.844-0.239 3.364-2.843 5.05-6.032 4.594l-2.547-0.363c-6.064-0.867-3.475-10.048 2.533-9.19" fill="#fff"/></g><g id="g60" transform="translate(198.73 34.265)"><path id="path62" d="m0 0c0.242 0.515 0.53 0.842 0.864 0.978s0.774 0.174 1.319 0.114c1.092-1.001 2.207-1.941 3.344-2.821 1.137-0.879 2.327-1.637 3.57-2.274 1.244-0.637 2.548-1.145 3.912-1.524 1.365-0.379 2.82-0.568 4.367-0.568h1.046c0.394 0 0.751 0.052 1.069 0.159 0.319 0.106 0.592 0.28 0.819 0.523 0.227 0.242 0.341 0.591 0.341 1.046-0.121 0.91-0.599 1.706-1.433 2.388-0.834 0.683-1.842 1.334-3.025 1.956-1.182 0.621-2.441 1.258-3.775 1.911-1.335 0.651-2.547 1.394-3.639 2.229-1.092 0.833-1.972 1.789-2.638 2.865-0.668 1.076-0.926 2.373-0.774 3.889 0 0.849 0.273 1.607 0.819 2.275 0.546 0.666 1.213 1.235 2.002 1.706 0.788 0.469 1.614 0.833 2.479 1.091 0.864 0.258 1.629 0.387 2.297 0.387 1.303 0 2.63-0.19 3.98-0.569 1.349-0.379 2.554-0.932 3.616-1.66l-1.228-1.729c-0.546 0.455-1.221 0.796-2.024 1.024-0.804 0.227-1.631 0.348-2.479 0.364-0.85 0.015-1.683-0.053-2.502-0.205s-1.539-0.387-2.161-0.705-1.091-0.698-1.41-1.137c-0.318-0.44-0.402-0.918-0.25-1.433 0-1.426 0.379-2.586 1.137-3.48s1.713-1.668 2.866-2.32c1.152-0.652 2.395-1.235 3.73-1.751 1.334-0.516 2.577-1.099 3.73-1.751 1.152-0.652 2.107-1.426 2.865-2.32 0.758-0.895 1.138-2.04 1.138-3.434 0-0.88-0.145-1.577-0.432-2.093-0.289-0.515-0.668-0.909-1.138-1.182s-1.031-0.455-1.683-0.546-1.342-0.137-2.069-0.137c-1.638 0-3.336 0.212-5.095 0.637s-3.472 1.016-5.14 1.774-3.229 1.676-4.685 2.752-2.699 2.267-3.73 3.571" fill="#fff"/></g><g id="g64" transform="translate(202.1 30.895)"><path id="path66" d="m0 0c0.288 0.326 0.576 0.652 0.864 0.978l-3.369-1.396c0.44 0.038 0.879 0.076 1.319 0.114-1.123 0.465-2.246 0.93-3.369 1.396 5.573-4.971 22.514-15.371 26.432-3.356 1.775 5.445-5.376 9.097-9.115 10.988-0.869 0.441-7.924 3.68-5.539 5.382 2.329 1.663 5.394 0.559 7.563-0.75l-1.71 6.519c-0.409-0.576-0.818-1.152-1.228-1.728 2.173 0.57 4.346 1.139 6.52 1.709-8.495 5.539-23.234-1.165-16.209-12.091 3.071-4.777 9.033-4.95 13.113-8.253 1.327-1.075 1.325-0.069 0.008-0.111-1.918-0.062-3.743 0.443-5.571 0.946-3.861 1.063-7.118 3.413-9.709 6.392-4.041 4.644-10.753-2.125-6.739-6.739 6.237-7.168 23.672-15.927 31.024-5.904 3.278 4.469-0.21 11.133-4.194 13.673-2.333 1.487-4.872 2.396-7.364 3.566-1.859 0.873-1.633 1.539-3.657 0.705 1.484 0.612 3.175 0.443 4.488-0.413 2.317-1.511 5.075-0.323 6.519 1.71 0.409 0.576 0.819 1.152 1.228 1.728 1.521 2.141 0.364 5.269-1.709 6.52-3.515 2.121-8.217 3.59-12.343 2.612-3.549-0.841-8.94-3.332-9.645-7.484-0.801-4.717 0.164-8.195 3.411-11.722 1.508-1.638 3.685-2.826 5.625-3.848 1.246-0.657 2.524-1.262 3.775-1.911 0.375-0.21 0.75-0.421 1.124-0.632 1.098-1.063 1.365-0.855 0.803 0.623 0.73 0.949 1.46 1.899 2.19 2.848-2.938-1.877-9.278 3.113-11.253 4.779-3.26 2.75-6.941 3.374-10.022-0.111-4.053-4.587 2.662-11.353 6.739-6.739" fill="#fff"/></g><g id="g68" transform="translate(21.262 43.642)"><path id="path70" d="m0 0c-0.89 0.296-1.632 0.395-2.571 0.395-3.858 0-6.083-2.374-6.083-6.527 0-4.056 2.126-6.281 6.033-6.281 0.84 0 1.533 0.049 2.621 0.197v12.216zm0 17.745h7.616v-35.252c-3.907-0.742-6.775-1.039-9.891-1.039-9.297 0-14.143 4.203-14.143 12.265 0 7.764 5.143 12.808 13.105 12.808 1.236 0 2.176-0.099 3.313-0.395v11.613z" fill="#fff"/></g><g id="g72" transform="translate(21.262 56.621)"><path id="path74" d="m0 0h7.616l-4.765 4.765v-35.252c1.166 1.532 2.332 3.063 3.498 4.595-4.828-0.862-15.233-2.961-17.532 3.323-2.536 6.933 3.076 12.43 9.917 11.126 3.006-0.572 6.031 1.31 6.031 4.595v11.613c0 2.598-2.167 4.765-4.765 4.765-6.146 0-6.146-9.53 0-9.53-1.588 1.588-3.176 3.177-4.765 4.765v-11.613c2.011 1.532 4.021 3.063 6.032 4.595-13.121 2.5-24.608-6.881-22.12-20.692 2.597-14.412 18.344-14.171 29.736-12.137 2.06 0.368 3.498 2.624 3.498 4.595v35.252c0 2.598-2.168 4.765-4.765 4.765h-7.616c-6.146 0-6.146-9.53 0-9.53" fill="#fff"/></g><g id="g76" transform="translate(22.529 48.237)"><path id="path78" d="m0 0c-7.856 2.156-14.426-2.641-14.686-10.727-0.1-3.117 1.1-6.523 3.533-8.546 2.826-2.351 6.348-2.742 9.886-2.303 2.577 0.32 4.765 1.926 4.765 4.765v12.216c0 6.146-9.53 6.146-9.53 0v-12.216c1.589 1.588 3.177 3.177 4.765 4.765-1.298-0.161-2.641-0.336-3.811-0.003 0.658-0.187 0.021-0.143-0.056 0.625-0.098 0.978 0.12 2.077 0.365 2.34-0.125-0.134-0.931-0.303 0.311 0.071 0.52 0.157 1.297-0.004 1.925-0.177 5.936-1.629 8.452 7.566 2.533 9.19" fill="#fff"/></g><path id="path80" d="m33.378 61.346h7.616v-7.814h-7.616v7.814zm7.616-11.72v-17.656c0-6.082-0.445-9-1.78-11.522-1.237-2.424-2.869-3.956-6.232-5.638l-7.072 3.363c3.363 1.583 4.995 2.966 6.033 5.094 1.089 2.175 1.435 4.698 1.435 11.325v15.034h7.616z" fill="#fff"/><g id="g82" transform="translate(36.229 49.626)"><path id="path84" d="m0 0v-14.711c0-6.462 0.786-12.555-5.652-15.99h4.81c-2.357 1.121-4.714 2.242-7.072 3.363v-8.229c8.765 4.426 9.828 11.569 9.828 20.616v14.951c-1.588-1.588-3.176-3.177-4.765-4.765h7.616c6.146 0 6.146 9.53 0 9.53h-7.616c-2.597 0-4.765-2.167-4.765-4.765v-13.211c0-2.537-0.006-5.071-0.156-7.604-0.21-3.545-1.797-4.93-4.952-6.523-3.053-1.542-3.169-6.722 0-8.229 3.224-1.533 8.294-5.278 11.882-3.363 5.748 3.067 9.145 7.698 9.983 14.178 1.047 8.096 0.389 16.605 0.389 24.752 0 6.146-9.53 6.146-9.53 0" fill="#fff"/></g><g id="g86" transform="translate(33.378 56.581)"><path id="path88" d="m0 0h7.616l-4.765 4.765v-7.814c1.588 1.588 3.176 3.177 4.765 4.765h-7.616l4.765-4.765v7.814c0 6.146-9.53 6.146-9.53 0v-7.814c0-2.598 2.167-4.765 4.765-4.765h7.616c2.597 0 4.765 2.167 4.765 4.765v7.814c0 2.598-2.168 4.765-4.765 4.765h-7.616c-6.146 0-6.146-9.53 0-9.53" fill="#fff"/></g><g id="g90" transform="translate(57.512 35.778)"><path id="path92" d="m0 0c-5.045-0.495-6.676-1.286-6.676-3.264 0-1.484 0.939-2.176 3.016-2.176 1.138 0 2.176 0.099 3.66 0.346v5.094zm-11.918 12.116c3.363 1.583 6.577 2.275 10.088 2.275 3.907 0 6.479-1.039 7.616-3.066 0.643-1.137 0.841-2.621 0.841-5.787v-15.478c-3.413-0.495-7.715-0.841-10.88-0.841-6.379 0-9.248 2.226-9.248 7.171 0 5.341 3.808 7.814 13.155 8.605v1.682c0 1.384-0.692 1.878-2.621 1.878-2.819 0-5.984-0.79-8.952-2.324v5.885h0.001z" fill="#fff"/></g><g id="g94" transform="translate(47.999 43.78)"><path id="path96" d="m0 0c1.808 0.777 10.439 3.535 11.278 0.44 0.462-1.701 0.097-4.286 0.097-6.085v-12.297l4.765 4.765c-2.791-0.374-13.269-2.728-15.18 0.163-2.827 4.278 6.471 5.071 8.207 5.243 2.584 0.255 4.765 1.974 4.765 4.765 0 11.086-11.609 8.706-18.742 5.35 2.39-1.371 4.78-2.743 7.17-4.114v5.884c-1.589-1.588-3.177-3.176-4.765-4.765 6.146 0 6.146 9.53 0 9.53-2.598 0-4.765-2.167-4.765-4.765v-5.884c0-3.856 3.987-5.612 7.17-4.115 1.625 0.765 3.321 1.371 5.11 1.608 2.357-0.267 2.121 0.572-0.708 2.516v-1.245l4.765 4.765c-8.898-0.88-18.369-3.786-17.869-14.464 0.598-12.754 16.039-11.181 24.842-10.002 2.574 0.345 4.765 1.907 4.765 4.765 0 5.728 0.061 11.459-0.026 17.187-0.212 14.133-16.119 13.096-25.689 8.984-5.632-2.42-0.772-10.627 4.81-8.229" fill="#fff"/></g><g id="g98" transform="translate(57.512 40.543)"><path id="path100" d="m0 0c-4.142-0.424-10.45-1.177-11.25-6.394-0.559-3.644 0.883-6.638 4.365-8.067 2.471-1.015 5.622-0.399 8.152 0.007 2.061 0.331 3.498 2.652 3.498 4.595v5.094l-4.765-4.765c2.598 0 4.765 2.167 4.765 4.765 0 2.597-2.167 4.765-4.765 4.765s-4.765-2.168-4.765-4.765v-5.094c1.166 1.531 2.332 3.063 3.498 4.594-0.609-0.091-0.638-0.101-0.088-0.029-0.392-0.051-0.786-0.082-1.18-0.111-0.336-0.025-2.338 0.066-0.969-0.121-0.202 0.033-0.4 0.083-0.594 0.15 1.146-0.344 1.662-1.015 2.131-2.182-0.333 0.829 0.041-1.021 0.061-0.283-0.038-1.378-0.19-1.068-0.041-0.587-0.316-1.022-0.517-1.196-1.332-1.788 0.114 0.077 0.233 0.148 0.356 0.211 0.773 0.429-1.162-0.429-0.238-0.114 0.491 0.167 1.005 0.268 1.512 0.368 0.185 0.037 1.411 0.219 0.279 0.068 0.455 0.061 0.913 0.106 1.37 0.153 2.583 0.264 4.765 1.967 4.765 4.765 0 2.397-2.176 5.03-4.765 4.765" fill="#fff"/></g><g id="g102" transform="translate(67.848 48.438)"><path id="path104" d="m0 0c4.5 1.187 8.209 1.731 11.968 1.731 3.906 0 6.725-0.889 8.407-2.621 1.583-1.631 2.077-3.412 2.077-7.22v-14.935h-7.616v14.638c0 2.918-0.989 4.006-3.708 4.006-1.039 0-1.978-0.099-3.512-0.544v-18.1h-7.616v23.045z" fill="#fff"/></g><g id="g106" transform="translate(69.12 43.824)"><path id="path108" d="m0 0c4.45 1.119 9.258 2.168 13.843 1.245 3.041-0.613 2.551-3.499 2.551-5.939v-13.737l4.786 4.786h-7.616l4.786-4.786v13.957c0 8.117-6.088 10.548-13.278 8.758-2.059-0.513-3.514-2.526-3.514-4.614v-18.1l4.786 4.785h-7.616l4.786-4.785v23.045c0 2.608-2.177 4.785-4.786 4.785-6.172 0-6.172-9.571 0-9.571-1.595 1.595-3.19 3.19-4.785 4.786v-23.045c0-2.609 2.176-4.786 4.785-4.786h7.616c2.608 0 4.785 2.177 4.785 4.786v18.1c-1.171-1.539-2.342-3.077-3.513-4.615 3.031 0.755 1.241-0.275 1.163 1.153 0.012-0.225 0-0.459 0-0.682v-5.214-8.743c0-2.608 2.176-4.785 4.785-4.785h7.616c2.608 0 4.785 2.177 4.785 4.785 0 6.201 0.708 12.877-0.306 19.019-2.185 13.234-18.709 11.028-28.203 8.641-5.983-1.504-3.444-10.734 2.544-9.229" fill="#fff"/></g><g id="g110" transform="translate(108.39 43.988)"><path id="path112" d="m0 0h-0.247-0.544c-1.483 0.049-3.214-0.346-4.402-1.088-1.829-1.039-2.769-2.917-2.769-5.588 0-3.809 1.88-5.984 5.242-5.984 1.039 0 1.88 0.198 2.868 0.494v0.544 2.077c0 0.89-0.049 1.88-0.049 2.918l-0.049 3.511-0.05 2.522v0.594zm-15.133-22.749c2.671-1.384 5.341-2.027 8.16-2.027 4.994 0 7.121 2.027 7.121 6.874v0.149c-1.483-0.742-2.967-1.039-4.945-1.039-6.676 0-10.93 4.401-10.93 11.374 0 8.655 6.281 13.55 17.408 13.55 3.264 0 6.281-0.346 9.94-1.087l-2.607-5.494c-2.028 0.396-0.163 0.053-1.695 0.201v-0.791l0.098-3.214 0.05-4.154c0.049-1.038 0.049-2.077 0.099-3.115v-2.078c0-6.528-0.544-9.594-2.176-12.116-2.374-3.709-6.479-5.539-12.314-5.539-2.967 0-5.538 0.446-8.209 1.484v7.022z" fill="#fff"/></g><g id="g114" transform="translate(90.856 17.124)"><path id="path116" d="m0 0c9.211-4.264 22.451-3.802 22.451 9.11 0 3.96-3.97 5.473-7.17 4.115-7.229-3.068-10.483 5.619-7.494 10.898 3.423 6.046 14.799 4.198 20.106 3.191-0.95 2.333-1.899 4.666-2.848 7-0.869-1.832-1.739-3.663-2.608-5.495 1.794 0.73 3.588 1.46 5.381 2.19-2.224 0.437-3.863 0.518-5.704-1.062l3.369 1.395c-0.209 0.013-0.417 0.026-0.626 0.039-2.595 0.159-4.765-2.288-4.765-4.765 0-5.017 0.274-10.031 0.233-15.049-0.026-3.122-0.058-6.443-2.233-8.887-3.329-3.741-10.409-2.384-14.421-0.993 1.166-1.531 2.333-3.063 3.499-4.594v7.021c-1.589-1.588-3.177-3.176-4.765-4.765 6.146 0 6.146 9.53 0 9.53-2.598 0-4.765-2.167-4.765-4.765v-7.021c0-2.226 1.475-3.894 3.498-4.595 10.606-3.679 24.03-1.375 27.76 10.49 2.31 7.352 0.724 16.001 0.724 23.628-1.588-1.589-3.177-3.177-4.765-4.765 1.609-0.099 2.811 0.341 4.031 1.387-1.123-0.465-2.246-0.93-3.37-1.395-0.077-0.008-0.155-0.016-0.233-0.024 1.973-0.387 4.428 0.183 5.381 2.19 0.869 1.832 1.739 3.663 2.608 5.495 1.216 2.562 0.4 6.383-2.848 6.999-12.131 2.302-29.006 2.145-32.863-12.463-3.725-14.106 9.623-24.52 22.528-19.044-2.39 1.371-4.78 2.743-7.17 4.114 0-4.181-5.628-2.031-8.111-0.881-5.538 2.564-10.382-5.649-4.81-8.229" fill="#fff"/></g><g id="g118" transform="translate(108.39 48.753)"><path id="path120" d="m0 0c-7.389 0-12.949-4.414-12.705-12.136 0.245-7.762 7.119-11.36 14.12-9.389 2.043 0.574 3.498 2.466 3.498 4.594 0 4.056-0.148 8.111-0.148 12.166 0 2.597-2.167 4.765-4.765 4.765-6.146 0-6.146-9.53 0-9.53-1.588 1.588-3.176 3.177-4.765 4.765 0-4.055 0.148-8.11 0.148-12.166 1.166 1.532 2.333 3.064 3.499 4.595-0.545-0.153-1.049-0.298-1.602-0.324-1.038-0.05-0.614 0.118-0.301-0.03 0.537-0.253-0.335 0.545-0.055 0.087 0.07-0.114-0.114 0.923-0.121 1.162-0.064 2.015 1.432 1.911 3.197 1.911 6.146 0 6.146 9.53 0 9.53" fill="#fff"/></g><g id="g122" transform="translate(131.69 30.882)"><path id="path124" d="m0 0c2.918 0 4.649 2.423 4.649 6.627 0 4.154-1.681 6.627-4.599 6.627-3.017 0-4.748-2.424-4.748-6.627 0-4.204 1.731-6.627 4.698-6.627m0.149 19.385c7.616 0 12.265-4.797 12.265-12.56 0-7.962-4.847-12.957-12.562-12.957-7.616 0-12.314 4.797-12.314 12.511 0 8.012 4.847 13.006 12.611 13.006" fill="#fff"/></g><g id="g126" transform="translate(131.84 45.503)"><path id="path128" d="m0 0c10.287-0.387 9.81-15.597-0.297-15.987-4.922-0.191-7.383 3.173-7.549 7.746-0.184 5.067 2.964 8.054 7.846 8.241 6.125 0.235 6.148 9.766 0 9.53-10.463-0.402-17.001-7.408-17.376-17.771-0.368-10.169 7.424-16.913 17.079-17.276 10.425-0.393 16.974 8.004 17.327 17.721 0.369 10.172-7.343 16.961-17.03 17.326-6.148 0.232-6.126-9.299 0-9.53" fill="#fff"/></g><g id="g130" transform="translate(131.69 26.117)"><path id="path132" d="m0 0c12.572 0.711 12.624 22.058 0.05 22.784-6.404 0.37-9.361-5.997-9.513-11.392-0.167-5.922 3.323-11.05 9.463-11.392 6.143-0.342 6.11 9.19 0 9.53 0.239-0.013 0.377-0.22 0.497-0.39-0.452 0.637-0.408 1.476-0.43 2.252-0.01 0.369 0.009 1.41 0.152 1.743 0.478 1.11 0.269 0.143-0.169 0.119-0.225-0.012-0.453 0.202-0.569 0.37 0.332-0.481 0.383-1.491 0.403-2.232 0.01-0.357-0.01-1.426-0.145-1.744-0.446-1.048-0.249-0.147 0.261-0.118-6.109-0.346-6.143-9.878 0-9.53" fill="#fff"/></g><g id="g134" transform="translate(21.262 43.453)"><path id="path136" d="m0 0c-0.89 0.296-1.632 0.395-2.571 0.395-3.858 0-6.083-2.374-6.083-6.527 0-4.056 2.126-6.281 6.033-6.281 0.84 0 1.533 0.049 2.621 0.197v12.216zm0 17.745h7.616v-35.252c-3.907-0.742-6.775-1.039-9.891-1.039-9.297 0-14.143 4.203-14.143 12.265 0 7.764 5.143 12.808 13.105 12.808 1.236 0 2.176-0.099 3.313-0.395v11.613z" fill="#bb5e91"/></g><path id="path138" d="m33.378 61.157h7.616v-7.814h-7.616v7.814zm7.616-11.72v-17.656c0-6.082-0.445-9-1.78-11.522-1.237-2.424-2.869-3.956-6.232-5.637l-7.072 3.362c3.363 1.583 4.995 2.966 6.033 5.094 1.089 2.176 1.435 4.699 1.435 11.325v15.034h7.616z" fill="#bb5e91"/><g id="g140" transform="translate(57.512 35.59)"><path id="path142" d="m0 0c-5.045-0.495-6.676-1.286-6.676-3.264 0-1.484 0.939-2.176 3.016-2.176 1.138 0 2.176 0.099 3.66 0.346v5.094zm-11.918 12.116c3.363 1.583 6.577 2.275 10.088 2.275 3.907 0 6.479-1.039 7.616-3.066 0.643-1.137 0.841-2.621 0.841-5.787v-15.478c-3.413-0.495-7.715-0.841-10.88-0.841-6.379 0-9.248 2.226-9.248 7.171 0 5.341 3.808 7.814 13.155 8.605v1.682c0 1.384-0.692 1.878-2.621 1.878-2.819 0-5.984-0.79-8.952-2.324v5.885h0.001z" fill="#bb5e91"/></g><g id="g144" transform="translate(67.848 48.249)"><path id="path146" d="m0 0c4.5 1.187 8.209 1.731 11.968 1.731 3.906 0 6.725-0.889 8.407-2.621 1.583-1.631 2.077-3.412 2.077-7.22v-14.935h-7.616v14.638c0 2.918-0.989 4.006-3.708 4.006-1.039 0-1.978-0.099-3.512-0.544v-18.1h-7.616v23.045z" fill="#bb5e91"/></g><g id="g148" transform="translate(108.39 43.799)"><path id="path150" d="m0 0h-0.247-0.544c-1.483 0.049-3.214-0.346-4.402-1.088-1.829-1.039-2.769-2.917-2.769-5.588 0-3.809 1.88-5.984 5.242-5.984 1.039 0 1.88 0.198 2.868 0.494v0.544 2.077c0 0.89-0.049 1.88-0.049 2.918l-0.049 3.511-0.05 2.522v0.594zm-15.133-22.749c2.671-1.384 5.341-2.027 8.16-2.027 4.994 0 7.121 2.027 7.121 6.874v0.149c-1.483-0.742-2.967-1.039-4.945-1.039-6.676 0-10.93 4.401-10.93 11.374 0 8.655 6.281 13.55 17.408 13.55 3.264 0 6.281-0.346 9.94-1.087l-2.607-5.494c-2.028 0.396-0.163 0.053-1.695 0.201v-0.791l0.098-3.214 0.05-4.154c0.049-1.038 0.049-2.077 0.099-3.115v-2.078c0-6.528-0.544-9.594-2.176-12.116-2.374-3.709-6.479-5.539-12.314-5.539-2.967 0-5.538 0.446-8.209 1.484v7.022z" fill="#bb5e91"/></g><g id="g152" transform="translate(131.69 30.694)"><path id="path154" d="m0 0c2.918 0 4.649 2.423 4.649 6.627 0 4.154-1.681 6.627-4.599 6.627-3.017 0-4.748-2.424-4.748-6.627 0-4.204 1.731-6.627 4.698-6.627m0.149 19.385c7.616 0 12.265-4.797 12.265-12.56 0-7.962-4.847-12.957-12.562-12.957-7.616 0-12.314 4.797-12.314 12.511 0 8.012 4.847 13.006 12.611 13.006" fill="#bb5e91"/></g><g id="g156" transform="translate(151.15 31.451)"><path id="path158" d="m0 0c0-0.304 0.007-0.675 0.022-1.115 0.016-0.44 0.076-0.864 0.183-1.273 0.106-0.409 0.273-0.758 0.5-1.047 0.228-0.288 0.553-0.432 0.978-0.432 0.848 0 1.637 0.387 2.366 1.16 0.727 0.774 1.401 1.759 2.023 2.957 0.621 1.198 1.183 2.524 1.684 3.98 0.5 1.456 0.925 2.881 1.273 4.276 0.349 1.394 0.615 2.661 0.796 3.798 0.182 1.137 0.274 1.979 0.274 2.525-1.851 0.666-3.428 0.651-4.732-0.046-1.304-0.698-2.357-1.797-3.161-3.298s-1.388-3.275-1.751-5.321c-0.364-2.047-0.517-4.102-0.455-6.164m2.774-26.61c-0.818-0.091-1.637-0.03-2.456 0.182-0.818 0.213-1.547 0.523-2.183 0.932-0.637 0.41-1.137 0.91-1.501 1.501-0.363 0.592-0.486 1.222-0.363 1.888 0.605 0 1.143-0.121 1.614-0.364 0.469-0.242 0.939-0.515 1.41-0.819 0.47-0.302 0.962-0.575 1.478-0.818s1.137-0.364 1.866-0.364c1.757 0 3.236 0.379 4.434 1.137s2.161 1.759 2.889 3.002c0.727 1.244 1.251 2.646 1.569 4.207 0.319 1.563 0.478 3.162 0.478 4.8 0 0.425-0.023 1.091-0.069 2.001-0.045 0.91-0.098 1.933-0.159 3.071-0.061 1.137-0.13 2.334-0.205 3.593-0.076 1.258-0.151 2.456-0.227 3.594-0.076 1.136-0.152 2.16-0.227 3.07-0.076 0.91-0.144 1.576-0.205 2.001-0.243-0.607-0.546-1.35-0.91-2.229-0.363-0.879-0.78-1.804-1.251-2.775-0.47-0.97-1-1.933-1.592-2.888-0.591-0.955-1.251-1.812-1.978-2.57-0.728-0.758-1.524-1.372-2.388-1.842s-1.782-0.705-2.752-0.705c-0.517 0-0.918 0.258-1.206 0.773-0.288 0.516-0.508 1.107-0.659 1.774-0.153 0.667-0.25 1.326-0.296 1.979-0.045 0.651-0.069 1.114-0.069 1.387-0.151 1.941-0.151 3.859 0 5.754 0.152 1.895 0.462 3.669 0.933 5.322 0.47 1.653 1.092 3.131 1.865 4.435 0.774 1.304 1.721 2.327 2.843 3.071 1.121 0.742 2.403 1.167 3.844 1.273 1.439 0.106 3.054-0.22 4.845-0.978 0.484 0.061 0.81-0.212 0.977-0.818 0.166-0.608 0.242-1.35 0.228-2.229-0.016-0.88-0.069-1.805-0.16-2.775-0.09-0.971-0.152-1.79-0.181-2.456 0-1.577 0.059-3.154 0.181-4.731s0.265-3.147 0.432-4.708c0.167-1.562 0.311-3.124 0.433-4.685 0.121-1.562 0.181-3.131 0.181-4.708 0-1.82-0.181-3.737-0.546-5.754-0.363-2.016-0.993-3.881-1.887-5.595-0.895-1.713-2.077-3.131-3.548-4.253-1.471-1.121-3.298-1.683-5.482-1.683" fill="#bb5e91"/></g><g id="g160" transform="translate(171.17 25.174)"><path id="path162" d="m0 0c-0.152 0-0.35 0.031-0.592 0.091-0.243 0.061-0.485 0.152-0.727 0.273-0.243 0.121-0.449 0.265-0.615 0.432-0.167 0.166-0.25 0.356-0.25 0.569l-0.045 21.879c0 0.212 0.083 0.402 0.25 0.568 0.167 0.167 0.371 0.311 0.614 0.433 0.242 0.12 0.485 0.212 0.728 0.273 0.242 0.06 0.439 0.09 0.591 0.09l0.046-24.608zm-1.911 29.293c-0.212 0-0.454 0.076-0.728 0.228-0.272 0.151-0.507 0.341-0.705 0.569-0.197 0.227-0.334 0.47-0.409 0.727-0.075 0.258-0.022 0.478 0.159 0.66 0.121 0.364 0.365 0.697 0.728 1.001 0.364 0.303 0.743 0.507 1.137 0.614 0.394 0.106 0.735 0.091 1.024-0.046 0.287-0.136 0.432-0.477 0.432-1.023 0-0.273-0.023-0.569-0.069-0.887-0.045-0.319-0.136-0.614-0.272-0.887-0.137-0.273-0.312-0.5-0.524-0.683-0.212-0.181-0.47-0.273-0.773-0.273" fill="#bb5e91"/></g><g id="g164" transform="translate(174.4 43.824)"><path id="path166" d="m0 0c-0.091 0.394-0.213 0.894-0.364 1.501-0.152 0.606-0.288 1.228-0.409 1.865-0.122 0.636-0.182 1.243-0.182 1.82 0 0.575 0.091 1.038 0.272 1.387 0.183 0.348 0.501 0.546 0.955 0.591 0.456 0.045 1.092-0.159 1.912-0.614 0.06-0.303 0.143-0.812 0.25-1.524 0.105-0.713 0.219-1.471 0.34-2.274 0.122-0.804 0.228-1.563 0.319-2.274 0.091-0.713 0.136-1.222 0.136-1.524 0.546 1.212 1.244 2.365 2.093 3.457 0.849 1.091 1.834 2.047 2.956 2.865 1.122 0.819 2.35 1.471 3.685 1.956 1.334 0.485 2.759 0.728 4.275 0.728l-0.454-2.593c-1.941-0.334-3.753-1.153-5.435-2.456-1.684-1.304-3.087-2.987-4.208-5.049-1.122-2.063-1.873-4.473-2.252-7.233-0.379-2.759-0.236-5.761 0.432-9.006l-2.866-0.591c-0.03 0.031-0.075 0.402-0.136 1.114s-0.136 1.63-0.227 2.752-0.183 2.38-0.274 3.775c-0.09 1.395-0.181 2.79-0.272 4.185s-0.19 2.722-0.296 3.98c-0.106 1.259-0.189 2.312-0.25 3.162" fill="#bb5e91"/></g><g id="g168" transform="translate(192.68 64.702)"><path id="path170" d="m0 0 2.547 0.364c0.121-1.608 0.234-3.503 0.341-5.686 0.106-2.183 0.197-4.489 0.273-6.914 0.075-2.427 0.144-4.89 0.205-7.392 0.06-2.501 0.113-4.874 0.159-7.119 0.045-2.244 0.098-4.268 0.16-6.072 0.059-1.805 0.135-3.223 0.227-4.253 0-0.425-0.076-0.826-0.227-1.205-0.153-0.38-0.334-0.653-0.546-0.819-0.213-0.167-0.455-0.189-0.729-0.069-0.272 0.122-0.515 0.456-0.727 1.001l-1.683 38.164z" fill="#bb5e91"/></g><g id="g172" transform="translate(198.73 34.089)"><path id="path174" d="m0 0c0.242 0.515 0.53 0.841 0.864 0.978 0.333 0.136 0.774 0.174 1.32 0.114 1.091-1.001 2.206-1.942 3.342-2.821 1.138-0.879 2.328-1.637 3.572-2.274 1.243-0.637 2.547-1.145 3.911-1.524 1.365-0.379 2.82-0.568 4.367-0.568h1.046c0.393 0 0.751 0.053 1.069 0.159 0.319 0.106 0.591 0.28 0.819 0.523 0.227 0.243 0.341 0.591 0.341 1.046-0.122 0.91-0.599 1.706-1.433 2.388-0.834 0.683-1.842 1.334-3.025 1.956-1.182 0.622-2.441 1.258-3.775 1.911-1.335 0.652-2.548 1.394-3.639 2.229-1.092 0.833-1.971 1.788-2.638 2.865-0.667 1.076-0.926 2.372-0.774 3.89 0 0.848 0.274 1.607 0.82 2.274 0.545 0.667 1.211 1.235 2.001 1.706 0.788 0.469 1.615 0.833 2.479 1.091s1.629 0.387 2.297 0.387c1.304 0 2.63-0.19 3.979-0.569 1.35-0.379 2.555-0.932 3.617-1.66l-1.228-1.728c-0.546 0.454-1.222 0.795-2.024 1.023-0.804 0.228-1.63 0.348-2.479 0.364-0.85 0.015-1.683-0.053-2.502-0.205s-1.54-0.387-2.161-0.705c-0.622-0.318-1.092-0.698-1.41-1.137-0.318-0.44-0.402-0.918-0.25-1.433 0-1.426 0.379-2.586 1.138-3.48 0.756-0.895 1.712-1.668 2.865-2.32 1.152-0.652 2.395-1.235 3.729-1.751 1.335-0.516 2.577-1.099 3.731-1.751 1.152-0.652 2.107-1.426 2.865-2.32 0.758-0.895 1.138-2.04 1.138-3.434 0-0.88-0.145-1.578-0.433-2.093-0.288-0.516-0.667-0.909-1.137-1.182s-1.031-0.455-1.683-0.546c-0.653-0.091-1.342-0.136-2.07-0.136-1.637 0-3.336 0.211-5.094 0.636-1.759 0.425-3.473 1.016-5.14 1.774-1.668 0.758-3.229 1.676-4.686 2.752-1.455 1.076-2.699 2.267-3.729 3.571" fill="#bb5e91"/></g><g id="g176"><g id="g178" clip-path="url(#clipPath180)"><g id="g184" transform="translate(227.2 32.173)"><path id="path186" d="m0 0c-0.576 3.008-3.141 5.268-5.56 6.864-2.33 1.536-5.077 2.276-7.443 3.514-0.372 0.194-0.728 0.411-1.08 0.636 0.162 0.003 0.324 0.004 0.486 0.001 0.168 0 0.287 0.003 0.371 0.008 0.079-0.02 0.191-0.046 0.35-0.077 0.323-0.072 0.64-0.163 0.952-0.274-0.821 0.264 0.294-0.3 0.414-0.391 2.213-1.673 5.181-0.208 6.548 1.717 0.409 0.576 0.819 1.152 1.228 1.728 1.567 2.205 0.314 5.22-1.717 6.548-6.071 3.969-13.919 3.772-19.46-0.951-0.615-0.524-1.117-1.122-1.528-1.767-0.139 5.157-0.326 10.316-0.704 15.461-0.249 3.378-2.848 5.073-6.058 4.615-0.465-0.067-0.93-0.133-1.396-0.2-0.343-0.009-0.682-0.059-1.012-0.144-0.047-0.007-0.093-0.014-0.139-0.02-1.2-0.172-2.136-0.965-2.737-1.99-0.52-0.758-0.819-1.662-0.776-2.625 0.122-2.778 0.245-5.557 0.367-8.335-2.861-0.426-5.543-1.503-7.886-3.095-0.973 1.232-2.652 2.051-4.142 2.328-0.227 0.042-0.451 0.071-0.673 0.092 0.057 0.431 0.087 0.867 0.112 1.296 0.075 1.27-0.312 2.228-0.79 3.359-0.57 1.348-2.068 2.081-3.331 2.555-1.059 0.398-2.581 0.238-3.623-0.097-1.242-0.401-2.218-1.056-3.186-1.924-0.669-0.6-1.087-1.326-1.434-2.107-0.156-0.279-0.299-0.586-0.465-0.994-0.204-0.506-0.201-1.063-0.25-1.603-0.048-0.526 0.076-1.139 0.277-1.722-0.438 0.129-0.887 0.214-1.336 0.294-3.002 0.531-5.705 0.053-8.472-1.179-2.898-1.29-4.928-3.973-6.307-6.915-0.331 0.594-0.699 1.162-1.106 1.694-3.375 4.418-8.309 6.462-13.814 6.529-3.188-0.039-6.198-0.806-8.79-2.213-0.478 0.385-1.064 0.669-1.761 0.807-9.268 1.839-21.303 2.199-28.25-4.421-1.446 2.273-3.882 3.713-6.327 4.695-2.909 1.169-6.38 1.133-9.459 0.948-3.483-0.209-6.943-0.867-10.32-1.728-0.767-0.132-1.418-0.426-1.947-0.838-0.453 0.359-0.955 0.691-1.515 0.99-5.326 2.844-12.106 1.878-17.713-0.202 0.014 0.146 0.023 0.292 0.023 0.44v7.815c0 2.608-2.177 4.785-4.786 4.785h-7.615c-0.794 0-1.547-0.204-2.212-0.558-0.683 0.38-1.464 0.599-2.288 0.599h-7.616c-3.156 0-4.694-2.503-4.622-4.949l-0.163 0.163v-6.488c-4.287-0.278-8.457-1.912-11.578-4.966-4.494-4.395-5.443-11.02-4.394-16.959 0.983-5.565 5.093-9.475 10.192-11.417 3.382-1.288 7.158-1.503 10.905-1.241-0.987-2.174-0.363-5.202 1.893-6.274 1.509-0.718 3.018-1.436 4.527-2.153 0.772-0.367 1.543-0.734 2.314-1.101 2.424-1.152 4.248-0.605 6.462 0.641 3.01 1.694 5.484 4.224 6.922 7.375 0.479 1.051 0.843 2.121 1.123 3.209 1.062-0.601 2.257-1.051 3.576-1.329 5.491-1.158 11.51-0.234 16.992 0.54 0.03 0.005 0.059 0.014 0.09 0.019 0.697-0.401 1.498-0.635 2.347-0.635h7.616c1.43 0 2.727 0.657 3.61 1.677 0.883-1.02 2.18-1.677 3.61-1.677h5.791v-6.391c0-2.275 1.492-3.857 3.513-4.614 6.021-2.257 13.254-2.358 19.164 0.295 4.494 2.016 7.707 6.21 8.809 10.969 0.205 0.886 0.366 1.779 0.496 2.679 0.92-0.738 1.949-1.375 3.093-1.882 7.181-3.181 16.029-1.887 21.246 4.043 0.495-2.066 1.414-4.177 3.298-5.024 2.961-1.33 5.929-0.844 8.698 0.759 0.559 0.324 1.085 0.687 1.583 1.081 0.082-1.617 0.092-3.196-0.097-4.57-0.103-0.742-0.266-1.472-0.452-2.196-0.089-0.327-0.191-0.651-0.303-0.971-0.032-0.097-0.058-0.176-0.079-0.243-0.04-0.058-0.11-0.182-0.227-0.413-0.15-0.282-0.312-0.558-0.486-0.826 0.442 0.713-0.367-0.406-0.432-0.473-0.226-0.196-0.336-0.298-0.34-0.312-0.188-0.124-0.383-0.235-0.582-0.34-0.001 0.015-0.142-0.026-0.431-0.125-0.119-0.034-0.209-0.062-0.278-0.085-0.083-0.001-0.198-0.006-0.358-0.017-0.602 0.041-0.689 0.011-0.259-0.091-0.139 0.019-0.23 0.028-0.292 0.031-0.026 0.042-0.132 0.126-0.419 0.285-1.978 1.096-3.583 2.009-5.918 2.129-2.781 0.143-4.555-2.297-4.785-4.785-0.549-5.944 6.121-9.624 11.29-9.289 11.056 0.24 15.656 10.826 16.193 20.479 0.348-0.067 0.698-0.116 1.047-0.146 0.765-0.067 1.492 0.113 2.141 0.457 1.085-0.663 2.439-0.889 3.816-0.605 0.955 0.197 1.91 0.394 2.866 0.591 2.69 0.556 3.818 3.464 3.342 5.887-0.777 3.953-0.622 7.454 0.745 11.297-0.062-0.209 0.365 0.822 0.373 0.837 0.226 0.462 0.492 0.902 0.757 1.342 0.543 0.905 0.601 0.955 1.447 1.845 0.71 0.747 1.393 1.282 2.168 1.682 0.018-0.423 0.037-0.846 0.056-1.269 0.192-4.362 0.385-8.725 0.577-13.087 0.04-0.914 0.08-1.827 0.121-2.741 0.1-2.283 1.321-3.92 3.102-5.219 1.543-1.127 4.002-0.843 5.558 0.068 1.521 0.891 2.344 2.452 2.871 4.065 0.011 0.032 0.016 0.064 0.026 0.096 2.27-1.452 4.749-2.596 7.277-3.495 5.089-1.811 12.393-2.926 16.745 1.015 2.454 2.225 2.575 5.89 2 8.894z" stroke="#00a14b" stroke-miterlimit="10" stroke-width="0.318" fill="none"/></g></g></g></g></svg>
