<?xml version="1.0" encoding="UTF-8" standalone="no"?>
<!-- Created with Inkscape (http://www.inkscape.org/) -->

<svg
   xmlns:dc="http://purl.org/dc/elements/1.1/"
   xmlns:cc="http://creativecommons.org/ns#"
   xmlns:rdf="http://www.w3.org/1999/02/22-rdf-syntax-ns#"
   xmlns:svg="http://www.w3.org/2000/svg"
   xmlns="http://www.w3.org/2000/svg"
   xmlns:sodipodi="http://sodipodi.sourceforge.net/DTD/sodipodi-0.dtd"
   xmlns:inkscape="http://www.inkscape.org/namespaces/inkscape"
   width="210mm"
   height="297mm"
   viewBox="0 0 744.09448819 1052.3622047"
   id="svg3563"
   version="1.1"
   inkscape:version="0.91 r13725"
   sodipodi:docname="pixel_heart.svg">
  <sodipodi:namedview
     id="base"
     pagecolor="#ffffff"
     bordercolor="#666666"
     borderopacity="1.0"
     inkscape:pageopacity="0.0"
     inkscape:pageshadow="2"
     inkscape:zoom="0.98994949"
     inkscape:cx="188.10731"
     inkscape:cy="568.19419"
     inkscape:document-units="px"
     inkscape:current-layer="g42"
     showgrid="false"
     inkscape:window-width="1366"
     inkscape:window-height="704"
     inkscape:window-x="0"
     inkscape:window-y="27"
     inkscape:window-maximized="1" />
  <defs
     id="defs3565" />
  <metadata
     id="metadata3568">
    <rdf:RDF>
      <cc:Work
         rdf:about="">
        <dc:format>image/svg+xml</dc:format>
        <dc:type
           rdf:resource="http://purl.org/dc/dcmitype/StillImage" />
        <dc:title></dc:title>
      </cc:Work>
    </rdf:RDF>
  </metadata>
  <g
     id="layer1"
     inkscape:groupmode="layer"
     inkscape:label="Camada 1">
    <g
       id="g42"
       transform="matrix(1.25,0,0,-1.25,413.65715,486.22908)">
      <path
         d="m 0,0 0,-27.093 -29.803,0 0,-27.094 -21.674,0 0,27.094 -29.803,0 0,27.093 -24.384,0 0,29.803 -29.803,0 0,75.861 78.571,0 0,-24.384 32.512,0 0,24.384 78.571,0 0,-75.861 -29.803,0 L 24.384,0 0,0 Z m 81.28,108.373 -24.384,0 0,27.094 -83.989,0 0,-27.094 -27.094,0 0,27.094 -83.989,0 0,-27.094 -24.384,0 0,-81.28 24.384,0 0,-29.802 27.093,0 0,-24.384 27.094,0 0,-29.803 27.093,0 0,-24.384 32.512,0 0,24.384 27.093,0 0,29.803 27.094,0 0,24.384 27.093,0 0,29.802 24.384,0 0,81.28 z"
         style="fill:#bb5e91;fill-opacity:1;fill-rule:nonzero;stroke:none"
         id="path44"
         inkscape:connector-curvature="0" />
    </g>
  </g>
</svg>
